<svg width="418" height="101" viewBox="0 0 418 101" fill="none" xmlns="http://www.w3.org/2000/svg">
<g clip-path="url(#clip0_697_2)">
<path d="M316.774 60.5547L303.737 68.373L303.784 68.3881C301.092 69.8287 299.247 72.6716 299.247 75.9193C299.247 76.0146 299.251 76.108 299.254 76.2024L298.813 91.222L311.836 83.4114C314.494 81.9631 316.307 79.1429 316.307 75.9192C316.49 70.8027 316.624 65.6752 316.774 60.5547ZM312.794 67.3574L312.551 75.537C312.536 75.788 312.536 75.7819 312.529 75.9218C312.529 77.7281 311.508 79.2843 310.027 80.0918C309.982 80.1182 309.938 80.1454 309.894 80.1738L302.8 84.4316L303.037 76.3125C303.039 76.2339 303.039 76.1549 303.037 76.0763C303.033 75.9402 303.029 75.8941 303.029 75.9221C303.029 74.1058 304.067 72.5244 305.568 71.7209C305.606 71.6748 305.643 71.6279 305.679 71.5803L305.687 71.6192L312.794 67.3574Z" fill="currentColor"/>
<path d="M228.725 62.8111C228.235 62.7084 227.724 62.8047 227.304 63.0788C226.885 63.3529 226.591 63.7823 226.488 64.2727C222.032 85.5852 219.653 96.6423 219.653 96.6423C219.601 96.8852 219.597 97.1359 219.642 97.3801C219.687 97.6244 219.78 97.8574 219.915 98.0658C220.05 98.2742 220.225 98.4539 220.429 98.5948C220.634 98.7356 220.864 98.8347 221.107 98.8864C221.596 98.9916 222.108 98.8984 222.528 98.6272C222.949 98.3559 223.245 97.9288 223.351 97.4395C223.351 97.4395 225.728 86.3673 230.187 65.0478C230.289 64.5574 230.193 64.0463 229.919 63.6269C229.645 63.2074 229.215 62.914 228.725 62.8111Z" fill="currentColor"/>
<path d="M246.257 0.131691C244.258 -0.26807 242.294 0.262826 240.972 1.44567C239.65 2.62855 238.894 4.23088 238.322 5.98553C237.176 9.49486 236.767 13.8461 236.077 17.7227C235.936 18.517 234.822 23.5108 233.568 29.1204C232.314 34.73 230.891 41.1322 230.01 45.3901C229.959 45.6334 229.957 45.8844 230.003 46.1286C230.049 46.3728 230.143 46.6054 230.28 46.8132C230.416 47.021 230.592 47.1998 230.798 47.3394C231.004 47.479 231.235 47.5767 231.479 47.6268C231.969 47.7271 232.479 47.6287 232.897 47.3533C233.315 47.0779 233.607 46.6479 233.708 46.1578C234.577 41.9563 236.005 35.5545 237.259 29.9471C238.512 24.3399 239.565 19.698 239.798 18.3871C240.522 14.3122 240.987 10.0071 241.917 7.15925C242.381 5.73531 242.969 4.73773 243.496 4.26555C244.024 3.79341 244.425 3.61872 245.519 3.8374C246.689 4.07135 247.26 4.4988 247.697 5.07756C248.133 5.65632 248.419 6.49304 248.538 7.54311C248.776 9.6432 248.271 12.3931 247.911 14.4673C247.202 18.5406 247.094 20.0784 242.965 25.5844C242.665 25.985 242.536 26.4882 242.607 26.9837C242.677 27.4791 242.941 27.9263 243.341 28.2272C243.742 28.5271 244.245 28.6559 244.74 28.5854C245.236 28.5148 245.683 28.2506 245.984 27.8507C250.336 22.0478 250.933 19.1719 251.638 15.117C251.985 13.1271 252.632 10.0928 252.295 7.11502C252.127 5.62615 251.691 4.09994 250.708 2.79661C249.726 1.49328 248.179 0.516031 246.257 0.131691Z" fill="currentColor"/>
<path d="M244.423 47.5159C243.956 47.3424 243.438 47.3609 242.984 47.5676C242.984 47.5676 238.116 49.7947 232.945 51.9082C230.359 52.9649 227.695 53.9931 225.57 54.6912C224.507 55.04 223.579 55.3013 222.905 55.4441C221.608 55.5983 220.682 55.347 219.783 56.8542C219.475 57.8509 220.034 58.9082 221.03 59.2164C222.142 59.5607 222.79 59.3328 223.688 59.1427C224.586 58.9522 225.612 58.6533 226.751 58.2789C229.03 57.5303 231.746 56.4752 234.377 55.4001C239.638 53.2497 244.549 51.0078 244.549 51.0078C245.499 50.5756 245.918 49.4553 245.486 48.5054C245.278 48.0473 244.895 47.6908 244.423 47.5159Z" fill="currentColor"/>
<path d="M414.025 52.152C410.201 55.9638 402.943 61.0464 396.368 63.7785C396.138 63.8739 395.93 64.0135 395.755 64.1894C395.579 64.3653 395.44 64.5741 395.346 64.8038C395.251 65.0335 395.203 65.2796 395.203 65.528C395.204 65.7764 395.253 66.0222 395.349 66.2515C395.542 66.7129 395.909 67.0792 396.371 67.2701C396.833 67.461 397.352 67.4611 397.814 67.2702C404.991 64.2883 412.387 59.1137 416.69 54.8243C417.045 54.4709 417.246 53.9908 417.247 53.4897C417.249 52.9886 417.051 52.5074 416.698 52.152C416.343 51.7977 415.863 51.5986 415.361 51.5986C414.86 51.5986 414.379 51.7977 414.025 52.152Z" fill="currentColor"/>
<path d="M383.258 66.2285C383.767 66.6399 384.34 66.958 384.969 67.1915" stroke="currentColor" stroke-width="3.77953" stroke-linecap="round"/>
<path d="M386.724 57.2074C385.525 57.1651 384.35 57.4409 383.309 57.9242C381.645 58.6973 380.187 60.0393 379.714 61.9554C379.241 63.8716 380.107 66.1107 382.069 67.6976C382.881 68.3539 384.071 68.2295 384.727 67.4183C385.384 66.607 385.257 65.4166 384.446 64.7601C383.247 63.7903 383.273 63.3128 383.384 62.8636C383.494 62.4144 384.046 61.7454 384.897 61.3499C385.749 60.9544 386.767 60.8775 387.503 61.1662C388.239 61.455 388.885 61.9996 389.251 63.6467C390.189 67.8752 387.109 75.3661 381.995 81.4729C376.988 87.4511 370.213 91.9854 365.188 92.1741L363.942 95.9065C364.244 95.9447 364.55 95.9707 364.862 95.9707C371.995 95.9707 379.336 90.5322 384.89 83.9004C390.444 77.2687 394.387 69.3358 392.942 62.8262C392.367 60.2328 390.78 58.3952 388.882 57.6505C388.17 57.3712 387.443 57.2327 386.724 57.2074Z" fill="currentColor"/>
<path d="M310.725 52.9006C304.134 52.8788 297.077 56.8845 292.438 63.5942C292.489 63.5211 292.384 63.6785 292.438 63.5942C287.597 71.8147 283.735 77.3545 280.708 80.7934C277.68 84.2323 275.496 85.4061 274.426 85.5043C273.891 85.5535 273.563 85.4528 273.12 85.141C272.676 84.8292 272.159 84.2502 271.651 83.4067C270.635 81.7199 269.702 79.0728 268.786 76.2387C268.462 75.2452 267.394 74.7026 266.401 75.0278C265.412 75.3521 264.872 76.4147 265.192 77.4047C266.121 80.2788 267.051 83.0991 268.411 85.3559C269.091 86.4843 269.892 87.4912 270.95 88.2348C272.008 88.9785 273.372 89.3965 274.772 89.268C277.573 89.011 280.242 87.0449 283.544 83.2954C286.834 79.5578 290.76 73.8841 295.647 65.5922C301.939 56.6542 312.36 54.3167 318.938 59.768C325.559 65.2543 326.308 76.9879 320.03 86.0688C313.752 95.1496 303.233 97.5454 296.612 92.059C294.311 90.1527 292.745 87.5547 291.905 84.5297C291.613 83.4801 290.599 82.8668 289.641 83.1606C288.683 83.4534 288.144 84.5414 288.436 85.5903C289.478 89.3435 291.497 92.7196 294.46 95.1743C302.985 102.239 315.705 98.9585 322.946 88.4848C330.187 78.0111 329.616 63.7192 321.091 56.6547C318.027 54.1159 314.423 52.9129 310.725 52.9006Z" fill="currentColor"/>
<path d="M274.279 6.02987C271.035 6.07333 268.648 8.61671 266.838 11.8763C265.027 15.1359 263.619 19.4209 262.534 24.1672C260.365 33.6597 259.514 44.9559 260.283 53.082C260.331 53.58 260.575 54.0385 260.961 54.3567C261.348 54.675 261.844 54.8272 262.342 54.7799C262.589 54.7567 262.83 54.6851 263.049 54.569C263.269 54.453 263.463 54.2948 263.622 54.1035C263.78 53.9122 263.899 53.6916 263.972 53.4543C264.045 53.217 264.071 52.9675 264.047 52.7203C263.336 45.1963 264.155 34.0662 266.225 25.0087C267.26 20.48 268.615 16.455 270.137 13.7144C271.66 10.9738 273.173 9.82489 274.33 9.8094C275.171 9.79806 275.364 9.93716 275.792 10.7174C276.22 11.4977 276.56 13.0214 276.611 15.0062C276.715 18.976 275.793 24.7119 274.397 30.6706C271.605 42.5881 266.965 55.5828 265.657 58.8547C264.355 62.1092 260.699 69.7174 256.311 77.2577C251.923 84.7981 246.648 92.373 242.625 95.5574C242.43 95.7114 242.267 95.9023 242.146 96.1193C242.025 96.3363 241.948 96.575 241.919 96.8219C241.89 97.0687 241.91 97.3188 241.978 97.5579C242.046 97.7969 242.161 98.0202 242.315 98.2149C242.469 98.41 242.66 98.5727 242.877 98.6939C243.094 98.8151 243.333 98.8923 243.58 98.9211C243.827 98.9499 244.077 98.9297 244.316 98.8617C244.555 98.7937 244.778 98.6792 244.973 98.5248C249.946 94.5874 255.098 86.8579 259.581 79.1548C264.064 71.4517 267.716 63.8747 269.163 60.2571C270.603 56.6569 275.209 43.7572 278.073 31.5342C279.505 25.4226 280.511 19.527 280.391 14.9028C280.331 12.5907 280.025 10.5748 279.107 8.90131C278.188 7.22781 276.335 6.00228 274.279 6.02987Z" fill="currentColor"/>
<path d="M367.341 56.8011C366.703 56.8419 366.084 57.0264 365.481 57.2972C362.438 58.6645 360.407 61.788 358.876 65.4984C357.345 69.2088 356.372 73.6203 356.048 77.9378C355.723 82.2553 356.021 86.4607 357.28 89.8363C357.909 91.5241 358.795 93.0267 360.063 94.1546C361.117 95.0913 362.463 95.7188 363.942 95.9066L365.188 92.1741C365.08 92.1779 364.968 92.193 364.862 92.193C363.889 92.193 363.228 91.9183 362.573 91.3356C361.918 90.753 361.302 89.8039 360.825 88.5231C359.87 85.9614 359.523 82.1649 359.819 78.2262C360.115 74.2875 361.034 70.1857 362.374 66.9391C363.714 63.6925 365.536 61.418 367.032 60.7458C367.335 60.6093 367.423 60.6108 367.497 60.6051C367.516 60.663 367.784 61.1821 367.725 62.2809C367.601 64.6236 366.297 68.6201 363.747 72.527C363.611 72.7353 363.517 72.9686 363.471 73.2132C363.425 73.4579 363.428 73.7093 363.48 73.9528C363.531 74.1964 363.63 74.4274 363.771 74.6325C363.913 74.8376 364.093 75.0128 364.302 75.148C364.722 75.4208 365.233 75.5157 365.723 75.4117C366.213 75.3077 366.642 75.0133 366.915 74.5934C369.768 70.2225 371.318 65.8747 371.499 62.4801C371.589 60.7827 371.423 59.2055 370.288 57.9547C369.72 57.3293 368.853 56.8929 367.985 56.8121C367.768 56.7932 367.553 56.7898 367.341 56.8011Z" fill="currentColor"/>
<path d="M345.861 55.688C345.496 55.3465 345.011 55.1634 344.512 55.1786C344.012 55.1938 343.539 55.4062 343.196 55.7693C336.575 62.8068 332.73 72.6227 331.82 80.8382C331.365 84.9459 331.619 88.6667 332.883 91.5862C334.148 94.5057 336.891 96.6296 340.258 96.3992C344.217 96.1286 348.482 93.5364 353.265 88.3087C353.602 87.9392 353.778 87.4514 353.756 86.9519C353.734 86.4524 353.515 85.982 353.147 85.6438C352.964 85.4759 352.749 85.3457 352.516 85.2607C352.282 85.1758 352.034 85.1377 351.786 85.1486C351.538 85.1596 351.294 85.2194 351.069 85.3246C350.844 85.4298 350.642 85.5783 350.475 85.7617C346.043 90.6057 342.429 92.4607 340 92.6269C338.099 92.7569 337.192 92.0424 336.346 90.0875C335.499 88.1326 335.17 84.9396 335.578 81.2588C336.393 73.897 340.049 64.6322 345.95 58.3602C346.119 58.1789 346.252 57.966 346.339 57.7336C346.427 57.5012 346.467 57.2539 346.459 57.0057C346.451 56.7575 346.394 56.5134 346.291 56.2873C346.189 56.0612 346.042 55.8576 345.861 55.688Z" fill="currentColor"/>
<path d="M59.4111 28.3041H18.7039V51.0093H53.6807V60.5238H18.7039V99.2849H8V18.7896H59.4111V28.3041Z" fill="currentColor"/>
<path d="M82.4607 28.7907H71V18.249H82.4607V28.7907ZM81.812 99.2849H71.6487V38.9H81.812V99.2849Z" fill="currentColor"/>
<path d="M147.492 99.285H137.329V64.9029C137.329 62.1278 137.167 59.5329 136.842 57.1182C136.518 54.6675 135.923 52.7574 135.058 51.3878C134.157 49.8742 132.86 48.7569 131.166 48.0362C129.472 47.2793 127.274 46.9009 124.571 46.9009C121.796 46.9009 118.894 47.5856 115.867 48.9552C112.84 50.3247 109.938 52.0726 107.163 54.1989V99.285H97V38.9H107.163V45.6034C110.335 42.9725 113.614 40.9182 117.002 39.4406C120.39 37.9629 123.868 37.2241 127.436 37.2241C133.959 37.2241 138.933 39.1883 142.356 43.1167C145.78 47.045 147.492 52.7033 147.492 60.0915V99.285Z" fill="currentColor"/>
<path d="M212.24 99.2848H202.076V92.9598C199.157 95.4826 196.112 97.4468 192.94 98.8523C189.769 100.258 186.327 100.961 182.615 100.961C175.407 100.961 169.676 98.1856 165.424 92.6355C161.207 87.0853 159.099 79.3907 159.099 69.5518C159.099 64.4341 159.819 59.8751 161.261 55.8746C162.739 51.8742 164.721 48.4685 167.208 45.6573C169.658 42.9183 172.506 40.828 175.749 39.3864C179.029 37.9448 182.416 37.2239 185.912 37.2239C189.084 37.2239 191.895 37.5663 194.346 38.2511C196.796 38.8998 199.373 39.927 202.076 41.3325V15.1675H212.24V99.2848ZM202.076 84.4183V49.7659C199.337 48.5405 196.887 47.6935 194.724 47.225C192.562 46.7565 190.201 46.5223 187.642 46.5223C181.948 46.5223 177.515 48.5045 174.344 52.4689C171.172 56.4333 169.586 62.0555 169.586 69.3356C169.586 76.5075 170.812 81.9676 173.262 85.7157C175.713 89.4279 179.641 91.2839 185.047 91.2839C187.931 91.2839 190.85 90.6532 193.805 89.3918C196.76 88.0944 199.518 86.4366 202.076 84.4183Z" fill="currentColor"/>
</g>
<defs>
<clipPath id="clip0_697_2">
<rect width="417.247" height="100.961" fill="white"/>
</clipPath>
</defs>
</svg>
